<svg width="153" height="124" viewBox="0 0 153 124" fill="none" xmlns="http://www.w3.org/2000/svg">
<mask id="path-1-outside-1_303_45" maskUnits="userSpaceOnUse" x="0" y="0" width="153" height="124" fill="black">
<rect fill="white" width="153" height="124"/>
<path d="M139.371 42.9405C133.371 1.94171 85.3736 5.94042 76.8717 37.438C68.3699 5.94022 20.3722 1.94148 14.3723 42.9404C8.37234 83.9403 76.8724 110.476 76.8724 110.476C76.8724 110.476 145.371 83.9404 139.371 42.9405Z"/>
</mask>
<path d="M70.5941 35.7522C69.6616 39.2189 71.716 42.785 75.1826 43.7175C78.6492 44.6499 82.2154 42.5956 83.1479 39.129L70.5941 35.7522ZM76.8717 37.438L83.1478 35.7465L76.8656 12.4364L70.5948 35.7496L76.8717 37.438ZM70.5963 39.1318C71.5304 42.598 75.0976 44.6506 78.5638 43.7164C82.0299 42.7823 84.0826 39.2151 83.1484 35.749L70.5963 39.1318ZM83.1479 39.129C83.1477 39.1295 83.1476 39.1299 83.1478 39.1293C83.1478 39.129 83.1482 39.1278 83.1486 39.1263L70.5948 35.7496C70.5949 35.749 70.5951 35.7486 70.5949 35.7492C70.5948 35.7495 70.5945 35.7508 70.5941 35.7522L83.1479 39.129ZM83.1484 35.749C83.1473 35.7448 83.1464 35.7415 83.1458 35.7394C83.1455 35.7383 83.1453 35.7374 83.1451 35.7368C83.145 35.7363 83.1449 35.7358 83.1449 35.7358C83.1447 35.7353 83.1451 35.7366 83.1455 35.7382C83.146 35.7399 83.1468 35.7428 83.1478 35.7465L70.5956 39.1294C70.5967 39.1335 70.5976 39.1368 70.5982 39.1389C70.5985 39.14 70.5987 39.1409 70.5989 39.1415C70.599 39.142 70.5992 39.1425 70.5992 39.1425C70.5993 39.143 70.5989 39.1417 70.5985 39.1402C70.5981 39.1385 70.5973 39.1355 70.5963 39.1318L83.1484 35.749ZM76.8717 37.438L64.3208 40.8257L76.8715 87.3238L89.4225 40.8257L76.8717 37.438ZM139.371 42.9405L126.508 44.8229L126.508 44.8229L139.371 42.9405ZM76.8724 110.476L72.1765 122.598C75.1977 123.768 78.5471 123.768 81.5683 122.598L76.8724 110.476ZM14.3723 42.9404L1.50935 41.058L1.50935 41.058L14.3723 42.9404ZM89.4225 40.8257C91.9943 31.298 100.493 25.8877 108.883 26.0019C112.929 26.057 116.663 27.415 119.603 30.0444C122.492 32.6291 125.383 37.1377 126.508 44.8229L152.234 41.0581C150.359 28.2439 145 17.8778 136.937 10.6656C128.924 3.49818 119.002 0.137218 109.236 0.00431037C90.0023 -0.257466 70.2511 12.0803 64.3209 34.0502L89.4225 40.8257ZM126.508 44.8229C128.33 57.2768 118.88 69.9685 102.789 81.5238C95.355 86.8621 87.6434 91.1072 81.7203 94.0353C78.7794 95.4892 76.3288 96.5942 74.6399 97.3252C73.7966 97.6903 73.1464 97.9607 72.7237 98.1333C72.5125 98.2197 72.3583 98.2814 72.2656 98.3183C72.2192 98.3367 72.1883 98.3489 72.1732 98.3548C72.1657 98.3578 72.1621 98.3592 72.1626 98.359C72.1629 98.3589 72.1642 98.3584 72.1664 98.3575C72.1676 98.357 72.1701 98.3561 72.1706 98.3559C72.1734 98.3548 72.1764 98.3536 76.8724 110.476C81.5683 122.598 81.5719 122.597 81.5756 122.595C81.5773 122.595 81.5813 122.593 81.5845 122.592C81.591 122.589 81.5985 122.586 81.607 122.583C81.6241 122.576 81.6454 122.568 81.6708 122.558C81.7215 122.538 81.7887 122.512 81.8718 122.479C82.0379 122.413 82.2677 122.32 82.5566 122.202C83.1344 121.966 83.95 121.627 84.968 121.186C87.0016 120.306 89.8556 119.017 93.2427 117.343C99.9756 114.014 109.014 109.063 117.954 102.643C134.613 90.6801 156.411 69.6042 152.234 41.0581L126.508 44.8229ZM89.4225 34.0503C83.4924 12.0803 63.7411 -0.257614 44.5069 0.00413054C34.7414 0.137021 24.8196 3.49797 16.8066 10.6654C8.74351 17.8776 3.38461 28.2437 1.50935 41.058L27.2353 44.8228C28.36 37.1376 31.2507 32.629 34.1404 30.0443C37.08 27.4148 40.814 26.0568 44.8607 26.0017C53.2507 25.8875 61.7491 31.2979 64.3208 40.8257L89.4225 34.0503ZM1.50935 41.058C-2.66815 69.6042 19.1312 90.6801 35.7896 102.643C44.7307 109.063 53.7689 114.014 60.5019 117.343C63.889 119.017 66.7431 120.306 68.7768 121.186C69.7947 121.627 70.6104 121.966 71.1882 122.202C71.4771 122.32 71.7069 122.413 71.873 122.479C71.9561 122.512 72.0233 122.538 72.074 122.558C72.0994 122.568 72.1207 122.576 72.1378 122.583C72.1463 122.586 72.1538 122.589 72.1603 122.592C72.1635 122.593 72.1675 122.595 72.1692 122.595C72.1729 122.597 72.1765 122.598 76.8724 110.476C81.5683 98.3536 81.5713 98.3548 81.574 98.3558C81.5746 98.356 81.5771 98.357 81.5782 98.3575C81.5805 98.3583 81.5818 98.3588 81.582 98.3589C81.5825 98.3591 81.579 98.3578 81.5715 98.3548C81.5564 98.3489 81.5254 98.3367 81.4791 98.3183C81.3863 98.2814 81.2322 98.2196 81.0209 98.1333C80.5982 97.9606 79.948 97.6902 79.1047 97.3252C77.4157 96.5941 74.9651 95.4892 72.0241 94.0353C66.1008 91.1071 58.3891 86.8619 50.9551 81.5236C34.8635 69.9683 25.4128 57.2765 27.2353 44.8228L1.50935 41.058Z" fill="url(#paint0_linear_303_45)" mask="url(#path-1-outside-1_303_45)"/>
<defs>
<linearGradient id="paint0_linear_303_45" x1="120.813" y1="3.5" x2="28.5" y2="95.8129" gradientUnits="userSpaceOnUse">
<stop stop-color="#3BD8C3"/>
<stop offset="0.489583" stop-color="#A167E0"/>
<stop offset="1" stop-color="#FF4F8D"/>
</linearGradient>
</defs>
</svg>
