<svg width="312" height="420" viewBox="0 0 312 420" fill="none" xmlns="http://www.w3.org/2000/svg">
<rect x="1" y="285" width="60" height="135" rx="18" fill="black"/>
<path fill-rule="evenodd" clip-rule="evenodd" d="M22 238C14.8203 238 9 243.82 9 251V282.031C11.8602 280.117 15.2997 279 19 279H43C46.7003 279 50.1398 280.117 53 282.031V251C53 243.82 47.1797 238 40 238H22Z" fill="black"/>
<rect x="236" y="285" width="60" height="135" rx="18" fill="black"/>
<path fill-rule="evenodd" clip-rule="evenodd" d="M257 238C249.82 238 244 243.82 244 251V282.031C246.86 280.117 250.3 279 254 279H278C281.7 279 285.14 280.117 288 282.031V251C288 243.82 282.18 238 275 238H257Z" fill="black"/>
<path fill-rule="evenodd" clip-rule="evenodd" d="M86.7545 32.547C53.1012 52.1761 35.3626 91.5174 45.1376 126.832C53.2593 156.174 70.4596 180.006 93.1292 192.232C115.413 204.25 144.415 205.841 178.376 188.133C192.967 180.525 201.714 165.676 204.376 146.526C207.047 127.315 203.355 104.754 193.914 84.2149C184.483 63.6979 169.676 45.9646 150.91 35.673C135.713 27.3388 117.474 23.6214 96.394 27.6782C93.0424 29.1249 89.8258 30.7556 86.7545 32.547ZM177.679 29.8904C192.54 42.3222 204.112 58.5145 212.086 75.8619C222.895 99.3773 227.453 125.781 224.186 149.28C220.911 172.838 209.533 194.443 187.624 205.867C148.585 226.223 112.513 225.41 83.6354 209.835C55.1431 194.468 35.0935 165.518 25.8624 132.168C23.7407 124.502 22.6373 116.749 22.4664 109.042C20.6659 121.908 20.468 135.387 21.3531 148.778C22.9801 173.393 28.2112 196.943 33.0859 214.432C34.8901 220.905 36.6359 226.514 38.1146 231H19C18.3745 231 17.7592 231.044 17.1573 231.13C16.0981 227.722 14.9698 223.927 13.8203 219.802C8.72618 201.526 3.14473 176.544 1.39667 150.097C-0.344436 123.755 1.66138 95.1785 12.4261 70.2055C23.3599 44.8401 43.1753 23.629 75.778 12.5332C80.7452 10.8427 85.6302 9.49893 90.4267 8.48212C130.513 -7.9515 182.867 -1.74658 235.511 43.4098C293.235 92.924 311.806 138.035 311.249 175.524C310.848 202.518 300.534 224.176 290.097 239.23C288.195 234.41 283.496 231 278 231H271.386C280.937 218.214 290.896 199.131 291.251 175.226C291.694 145.465 277.266 105.576 222.489 58.5902C207.105 45.3937 192.071 36.0515 177.679 29.8904Z" fill="black"/>
</svg>
