<svg width="51" height="40" viewBox="0 0 51 40" fill="none" xmlns="http://www.w3.org/2000/svg">
<path fill-rule="evenodd" clip-rule="evenodd" d="M48.5937 14.5673C49.3043 14.5673 50.015 15.0471 50.2519 15.527C50.4888 16.2468 50.2519 16.9666 50.015 17.2065C50.015 17.2065 28.4594 38.8003 28.2226 39.2802C27.9857 39.7601 27.512 40 27.0382 40H10.9356C5.25061 40 0.75 35.4413 0.75 29.683C0.75 27.5235 1.46062 25.3642 2.64499 23.6847C3.294 22.96 4.27199 21.9461 4.53998 21.7652L22.7793 3.29049C26.0955 -0.548416 31.7805 -1.02828 36.0442 1.8509C40.0711 4.73008 41.4923 10.0085 39.3605 14.5673H48.5937ZM9.27747 36.641C12.3568 37.3607 15.4362 35.9212 16.8574 33.042C19.0615 28.577 15.5701 22.9649 10.6987 22.9649C6.98959 22.9649 4.06623 26.2791 4.06623 29.9229C4.06623 33.2819 6.19811 35.9212 9.27747 36.641ZM25.148 5.68981L11.4093 19.6059C16.6205 20.0857 20.6474 24.1645 20.6474 29.443L34.8599 15.0471C36.7548 13.3676 37.4655 10.7283 36.7548 8.32907C36.0442 5.92971 34.1493 4.01028 31.7805 3.53042C29.4118 2.81062 26.8061 3.77035 25.148 5.68981ZM18.5155 36.641H26.3276L44.567 17.9263H36.9917L18.7527 36.4007L18.5155 36.641ZM7.47474 29.9874C7.47474 28.2414 8.88514 26.6541 10.7657 26.6541C12.6462 26.6541 14.2133 28.0827 14.0566 29.9874C14.0566 31.7334 12.6462 33.3208 10.7657 33.3208C9.04185 33.3208 7.47474 31.8922 7.47474 29.9874Z" fill="#3BD8C3"/>
</svg>
